<mxfile host="app.diagrams.net" modified="2024-10-29T16:07:58.678Z" agent="Mozilla/5.0 (Windows NT 10.0; Win64; x64) AppleWebKit/537.36 (KHTML, like Gecko) Chrome/130.0.0.0 Safari/537.36" etag="HlK3u-dUZlMrh4kYeF-V" version="24.4.0" type="github">
  <diagram id="C5RBs43oDa-KdzZeNtuy" name="Page-1">
    <mxGraphModel dx="934" dy="485" grid="1" gridSize="10" guides="1" tooltips="1" connect="1" arrows="1" fold="1" page="1" pageScale="1" pageWidth="827" pageHeight="1169" math="0" shadow="0">
      <root>
        <mxCell id="WIyWlLk6GJQsqaUBKTNV-0" />
        <mxCell id="WIyWlLk6GJQsqaUBKTNV-1" parent="WIyWlLk6GJQsqaUBKTNV-0" />
        <mxCell id="uCSFxvEHEAkHabznlq8F-0" value="&lt;h1 style=&quot;margin-top: 0px;&quot;&gt;&lt;span style=&quot;background-color: initial;&quot;&gt;Algo Trade System Structure&lt;/span&gt;&lt;/h1&gt;" style="text;html=1;whiteSpace=wrap;overflow=hidden;rounded=0;" vertex="1" parent="WIyWlLk6GJQsqaUBKTNV-1">
          <mxGeometry x="40" y="30" width="420" height="50" as="geometry" />
        </mxCell>
        <mxCell id="uCSFxvEHEAkHabznlq8F-1" value="&lt;h1 style=&quot;margin-top: 0px;&quot;&gt;&lt;span style=&quot;background-color: initial;&quot;&gt;1) Back Testing&lt;/span&gt;&lt;/h1&gt;" style="text;html=1;whiteSpace=wrap;overflow=hidden;rounded=0;" vertex="1" parent="WIyWlLk6GJQsqaUBKTNV-1">
          <mxGeometry x="40" y="110" width="420" height="50" as="geometry" />
        </mxCell>
        <mxCell id="uCSFxvEHEAkHabznlq8F-3" value="&lt;div style=&quot;font-size: 20px;&quot;&gt;&lt;ol style=&quot;&quot;&gt;&lt;li style=&quot;&quot;&gt;&lt;font style=&quot;font-size: 20px;&quot;&gt;list of tickets to trade (variable)&lt;/font&gt;&lt;/li&gt;&lt;ul&gt;&lt;li style=&quot;&quot;&gt;&lt;font style=&quot;font-size: 20px;&quot;&gt;are there better ways to extract a list of tickers&lt;/font&gt;&lt;/li&gt;&lt;/ul&gt;&lt;li style=&quot;&quot;&gt;&lt;font style=&quot;font-size: 20px;&quot;&gt;Identify list of factors affecting trade (e.g. interest rate, macro economic data, fed balance sheet), identify leading vs lagging indicator (give label for each of the data, identify data source)&lt;/font&gt;&lt;/li&gt;&lt;ul style=&quot;&quot;&gt;&lt;li&gt;&lt;font style=&quot;font-size: 20px;&quot;&gt;need to identify timeframe to store the data (e.g. 1 day or 5 min charts)&lt;/font&gt;&lt;/li&gt;&lt;/ul&gt;&lt;li style=&quot;&quot;&gt;&lt;font style=&quot;font-size: 20px;&quot;&gt;retrieve data, ideally store in database (or in csv at initial stage)&lt;/font&gt;&lt;/li&gt;&lt;li style=&quot;&quot;&gt;&lt;font style=&quot;font-size: 20px;&quot;&gt;correlation/ regression testing - factors that is highly correlated to market fluctuations&lt;/font&gt;&lt;/li&gt;&lt;ul&gt;&lt;li&gt;&lt;span style=&quot;background-color: initial;&quot;&gt;typically 2 outputs: i) a number (e.g. correlation = 0.9, ii) likely a chart&lt;/span&gt;&lt;/li&gt;&lt;/ul&gt;&lt;li style=&quot;&quot;&gt;&lt;font style=&quot;font-size: 20px;&quot;&gt;store &quot;factors&quot; affecting stock direction for each ticket for those with high correlation (can be on csv initially or database)&lt;/font&gt;&lt;/li&gt;&lt;ul&gt;&lt;li style=&quot;&quot;&gt;&lt;font style=&quot;font-size: 20px;&quot;&gt;we need to know the &quot;cut-off&quot; point based on the calculation results&lt;/font&gt;&lt;/li&gt;&lt;/ul&gt;&lt;li style=&quot;&quot;&gt;&lt;font style=&quot;font-size: 20px;&quot;&gt;add combination technical analysis metrics, to be retrieved from an API (these are different strategies eventually), need grid search abilities to identify best combination&lt;/font&gt;&lt;/li&gt;&lt;li style=&quot;&quot;&gt;&lt;font style=&quot;font-size: 20px;&quot;&gt;Calculation of PNL, win/loss ratio, equity curve, maximum drawdown, holding period, sharp ratio (preferably &amp;gt;0.7 for single stock, and &amp;gt;1.2 for a portfolio), calmer ratio&lt;/font&gt;&lt;/li&gt;&lt;ul style=&quot;&quot;&gt;&lt;li&gt;&lt;span style=&quot;background-color: initial;&quot;&gt;&lt;font style=&quot;font-size: 20px;&quot;&gt;Finding what is the best combination of &quot;trading parameters&quot; for each stock&lt;/font&gt;&lt;/span&gt;&lt;/li&gt;&lt;li&gt;&lt;span style=&quot;background-color: initial;&quot;&gt;&lt;font style=&quot;font-size: 20px;&quot;&gt;Out put of equity curve in a chart, with win/loss ratio, maximum draw down sharp/ calmer ratio&amp;nbsp;&lt;/font&gt;&lt;/span&gt;&lt;/li&gt;&lt;li&gt;&lt;span style=&quot;background-color: initial;&quot;&gt;&lt;font style=&quot;font-size: 20px;&quot;&gt;best presented as a legend, with ability to select/ de-select based on ticker list&lt;/font&gt;&lt;/span&gt;&lt;/li&gt;&lt;li&gt;&lt;span style=&quot;background-color: initial;&quot;&gt;&lt;font style=&quot;font-size: 20px;&quot;&gt;key: selected stocks and trading parameters needs to be stored to - i) match with actual trade results for tracking purposes, ii) act as the base data for future trade input&lt;/font&gt;&lt;/span&gt;&lt;/li&gt;&lt;/ul&gt;&lt;li style=&quot;&quot;&gt;&lt;font style=&quot;font-size: 20px;&quot;&gt;Output the combination of &quot;trade parameters&quot; (e.g. buy/ sell which stock based on what parameters)&lt;/font&gt;&lt;/li&gt;&lt;/ol&gt;&lt;/div&gt;&lt;div style=&quot;font-size: 20px;&quot;&gt;&lt;font style=&quot;font-size: 20px;&quot;&gt;&lt;br&gt;&lt;/font&gt;&lt;/div&gt;" style="text;html=1;align=left;verticalAlign=middle;whiteSpace=wrap;rounded=0;" vertex="1" parent="WIyWlLk6GJQsqaUBKTNV-1">
          <mxGeometry x="30" y="240" width="730" height="630" as="geometry" />
        </mxCell>
      </root>
    </mxGraphModel>
  </diagram>
</mxfile>
